<?xml version="1.0" encoding="iso-8859-1"?>
<!-- Uploaded to: SVG Repo, www.svgrepo.com, Generator: SVG Repo Mixer Tools -->
<!DOCTYPE svg PUBLIC "-//W3C//DTD SVG 1.1//EN" "http://www.w3.org/Graphics/SVG/1.1/DTD/svg11.dtd">
<svg fill="#000000" version="1.1" id="Capa_1" xmlns="http://www.w3.org/2000/svg" xmlns:xlink="http://www.w3.org/1999/xlink" 
	 width="800px" height="800px" viewBox="0 0 593.912 593.912"
	 xml:space="preserve">
<g>
	<g>
		<g>
			<path d="M535.249,105.831c-10.15,0-20.194,2.702-29.047,7.812l-159.126,91.872v-41.521c0-32.071-26.093-58.164-58.164-58.164
				c-10.15,0-20.194,2.702-29.046,7.812L29.57,246.605c-9.161,5.289-16.694,12.941-21.787,22.13
				C3.019,277.331,0.5,287.089,0.5,296.956c0,9.865,2.519,19.623,7.283,28.221c5.093,9.189,12.626,16.842,21.787,22.129
				l230.295,132.961c8.853,5.111,18.897,7.814,29.046,7.814c32.071,0,58.164-26.094,58.164-58.164v-41.521l159.126,91.871
				c8.853,5.111,18.896,7.814,29.046,7.814c32.071,0,58.164-26.094,58.164-58.164V163.995
				C593.413,131.923,567.32,105.831,535.249,105.831z M304.235,363.663v66.254c0,8.932-7.331,15.322-15.323,15.322
				c-2.547,0-5.162-0.648-7.626-2.072L50.99,310.206c-10.2-5.889-10.2-20.612,0-26.501l230.295-132.961
				c2.465-1.423,5.079-2.073,7.626-2.073c7.991,0,15.323,6.392,15.323,15.323v66.254v49.467v34.478V363.663z M550.572,429.917
				c0,8.932-7.331,15.322-15.323,15.322c-2.547,0-5.162-0.648-7.627-2.072L347.076,338.929v-83.946l180.546-104.239
				c2.465-1.423,5.079-2.073,7.626-2.073c7.991,0,15.324,6.392,15.324,15.323V429.917L550.572,429.917L550.572,429.917z"/>
			<path d="M535.248,488.581c-10.235,0-20.366-2.726-29.296-7.882l-158.376-91.438v40.655c0,32.348-26.316,58.664-58.664,58.664
				c-10.235,0-20.366-2.726-29.296-7.882L29.32,347.738c-9.239-5.332-16.837-13.05-21.975-22.319C2.54,316.747,0,306.905,0,296.956
				c0-9.951,2.54-19.793,7.346-28.463c5.137-9.268,12.736-16.986,21.975-22.321L259.616,113.21
				c8.929-5.154,19.059-7.879,29.296-7.879c32.348,0,58.664,26.316,58.664,58.664v40.654l158.376-91.439
				c8.929-5.154,19.06-7.879,29.297-7.879c15.645,0,30.369,6.109,41.462,17.202c11.093,11.092,17.201,25.817,17.201,41.462v265.922
				C593.912,462.265,567.596,488.581,535.248,488.581z M346.576,387.529l0.75,0.434l159.126,91.871
				c8.778,5.068,18.735,7.747,28.796,7.747c31.796,0,57.664-25.868,57.664-57.664V163.995c0-15.377-6.004-29.851-16.908-40.755
				c-10.903-10.904-25.377-16.909-40.755-16.909c-10.062,0-20.02,2.678-28.797,7.745l-159.876,92.305v-42.387
				c0-31.796-25.868-57.664-57.664-57.664c-10.062,0-20.02,2.678-28.796,7.745L29.82,247.038c-9.082,5.244-16.551,12.83-21.6,21.939
				C3.497,277.5,1,287.174,1,296.956c0,9.78,2.497,19.455,7.221,27.979c5.049,9.11,12.518,16.696,21.6,21.938l230.295,132.961
				c8.779,5.068,18.736,7.747,28.796,7.747c31.796,0,57.664-25.868,57.664-57.664V387.529z M535.249,445.739
				c-2.77,0-5.42-0.72-7.877-2.14L346.576,339.218v-84.524l0.25-0.145l180.546-104.239c2.46-1.42,5.109-2.14,7.876-2.14
				c8.726,0,15.824,7.098,15.824,15.823v265.923C551.072,438.642,543.974,445.739,535.249,445.739z M347.576,338.64l180.296,104.095
				c2.304,1.33,4.785,2.005,7.377,2.005c8.174,0,14.823-6.649,14.823-14.822V163.994c0-8.173-6.65-14.823-14.824-14.823
				c-2.589,0-5.07,0.675-7.376,2.006L347.576,255.271V338.64z M288.912,445.739c-2.769,0-5.419-0.72-7.876-2.14L50.74,310.639
				c-4.947-2.855-7.9-7.971-7.9-13.683c0-5.713,2.954-10.828,7.9-13.684l230.295-132.961c2.459-1.42,5.109-2.14,7.876-2.14
				c8.725,0,15.823,7.098,15.823,15.823v265.922C304.735,438.642,297.637,445.739,288.912,445.739z M288.912,149.171
				c-2.589,0-5.071,0.675-7.376,2.006L51.24,284.138c-4.634,2.675-7.4,7.467-7.4,12.818c0,5.351,2.767,10.142,7.4,12.817
				l230.295,132.961c2.304,1.33,4.785,2.005,7.376,2.005c8.174,0,14.823-6.649,14.823-14.822V163.995
				C303.735,155.821,297.086,149.171,288.912,149.171z"/>
		</g>
	</g>
</g>
</svg>